<svg version="1.1" xmlns="http://www.w3.org/2000/svg" viewBox="0 0 1091.7162531668073 520.7435152688249" width="1091.7162531668073" height="520.7435152688249">
  <!-- svg-source:excalidraw -->
  
  <defs>
    <style class="style-fonts">
      @font-face {
        font-family: "Virgil";
        src: url("https://excalidraw.com/Virgil.woff2");
      }
      @font-face {
        font-family: "Cascadia";
        src: url("https://excalidraw.com/Cascadia.woff2");
      }
      @font-face {
        font-family: "Assistant";
        src: url("https://excalidraw.com/Assistant-Regular.woff2");
      }
    </style>
    
  </defs>
  <rect x="0" y="0" width="1091.7162531668073" height="520.7435152688249" fill="#ffffff"></rect><g stroke-linecap="round" transform="translate(170.36620347248572 325.71851431165123) rotate(0 8.755230797343756 8.755230797343756)"><path d="M9.92 0.55 C11.62 0.66, 14.24 1.59, 15.46 2.9 C16.68 4.21, 17.15 6.52, 17.22 8.4 C17.29 10.28, 17.07 12.66, 15.88 14.17 C14.69 15.68, 11.88 17.15, 10.05 17.46 C8.22 17.78, 6.48 17.03, 4.9 16.05 C3.32 15.07, 1.39 13.34, 0.59 11.6 C-0.21 9.86, -0.46 7.36, 0.08 5.61 C0.63 3.86, 2.11 1.93, 3.87 1.09 C5.62 0.25, 9.35 0.64, 10.61 0.56 C11.88 0.47, 11.42 0.55, 11.47 0.58 M8.28 0.27 C10.08 0.1, 12.23 0.98, 13.77 1.97 C15.32 2.96, 17.04 4.34, 17.54 6.23 C18.03 8.12, 17.57 11.61, 16.72 13.31 C15.87 15.01, 14.21 15.87, 12.43 16.45 C10.66 17.03, 7.88 17.35, 6.07 16.79 C4.27 16.23, 2.49 14.56, 1.6 13.09 C0.71 11.62, 0.64 9.84, 0.75 7.97 C0.86 6.1, 0.96 3.28, 2.26 1.88 C3.57 0.47, 7.45 -0.23, 8.57 -0.48 C9.69 -0.73, 8.91 0.21, 9 0.38" stroke="none" stroke-width="0" fill="#ffc9c9"></path><path d="M6.18 -0.22 C7.81 -0.74, 10.34 -0.3, 12.13 0.52 C13.92 1.34, 16.1 2.85, 16.92 4.69 C17.75 6.54, 17.63 9.7, 17.09 11.59 C16.55 13.48, 15.28 14.99, 13.69 16.05 C12.1 17.11, 9.32 18.14, 7.54 17.95 C5.75 17.76, 4.28 16.27, 2.97 14.92 C1.67 13.57, -0.17 11.68, -0.3 9.87 C-0.44 8.06, 0.88 5.7, 2.16 4.06 C3.43 2.41, 6.52 0.57, 7.33 0.02 C8.14 -0.53, 7.09 0.56, 7.01 0.75 M8.79 -0.27 C10.62 -0.48, 13.21 0.74, 14.68 1.99 C16.14 3.25, 17.35 5.42, 17.59 7.27 C17.83 9.13, 17.12 11.46, 16.13 13.11 C15.13 14.77, 13.31 16.5, 11.62 17.2 C9.92 17.9, 7.74 18, 5.96 17.31 C4.18 16.62, 2.03 14.68, 0.95 13.06 C-0.12 11.45, -0.89 9.5, -0.51 7.62 C-0.13 5.74, 1.68 2.99, 3.25 1.78 C4.82 0.56, 8.17 0.66, 8.92 0.31 C9.67 -0.04, 7.99 -0.51, 7.76 -0.35" stroke="#e03131" stroke-width="1" fill="none"></path></g><g stroke-linecap="round" transform="translate(418.1916164405902 326.46179194970136) rotate(0 8.755230797343756 8.755230797343756)"><path d="M7.91 -0.1 C9.76 -0.46, 12.21 0.14, 13.66 1.1 C15.11 2.05, 16.15 3.77, 16.62 5.63 C17.09 7.49, 17.05 10.41, 16.47 12.26 C15.88 14.1, 14.63 15.9, 13.09 16.73 C11.55 17.56, 9.12 17.7, 7.22 17.22 C5.32 16.74, 2.92 15.4, 1.69 13.84 C0.45 12.29, -0.32 9.74, -0.18 7.9 C-0.05 6.06, 1.19 4.14, 2.49 2.78 C3.78 1.42, 6.61 0.16, 7.58 -0.26 C8.55 -0.69, 8.24 0.06, 8.3 0.24 M8.37 0.28 C10.18 0.22, 13.6 0.57, 14.98 1.84 C16.36 3.12, 16.46 6.08, 16.66 7.94 C16.85 9.8, 17.01 11.39, 16.15 13 C15.3 14.61, 13.26 16.9, 11.53 17.6 C9.8 18.31, 7.46 18.1, 5.78 17.23 C4.09 16.36, 2.37 14.16, 1.41 12.39 C0.45 10.61, -0.23 8.19, 0.02 6.58 C0.27 4.97, 1.46 3.84, 2.92 2.71 C4.38 1.59, 7.8 0.15, 8.78 -0.18 C9.77 -0.5, 8.89 0.57, 8.83 0.76" stroke="none" stroke-width="0" fill="#b2f2bb"></path><path d="M7.51 -0.31 C9.37 -0.57, 11.96 0.52, 13.58 1.56 C15.2 2.61, 16.64 4.26, 17.21 5.98 C17.79 7.7, 17.72 10.22, 17.02 11.9 C16.32 13.57, 14.64 15.14, 12.99 16.05 C11.35 16.96, 9.02 17.62, 7.17 17.35 C5.33 17.08, 3.06 15.83, 1.93 14.42 C0.8 13.02, 0.3 10.76, 0.38 8.93 C0.46 7.1, 1.3 4.89, 2.41 3.46 C3.53 2.02, 6.16 0.89, 7.07 0.32 C7.99 -0.25, 7.8 0, 7.9 0.06 M7.36 -0.18 C9.33 -0.48, 12.3 0.09, 13.91 1.18 C15.53 2.28, 16.52 4.48, 17.08 6.36 C17.64 8.25, 17.98 10.77, 17.28 12.52 C16.58 14.27, 14.59 16.03, 12.88 16.86 C11.17 17.7, 8.77 17.88, 7.04 17.53 C5.3 17.18, 3.72 16.15, 2.47 14.77 C1.22 13.4, -0.51 11.2, -0.47 9.25 C-0.43 7.3, 1.37 4.68, 2.7 3.08 C4.03 1.48, 6.75 0.12, 7.5 -0.37 C8.26 -0.87, 7.29 -0.06, 7.23 0.13" stroke="#2f9e44" stroke-width="1" fill="none"></path></g><g stroke-linecap="round" transform="translate(418.5083791153229 392.83767556319617) rotate(0 8.755230797343756 8.755230797343756)"><path d="M7.59 0.51 C9.3 0.13, 11.78 0.7, 13.29 1.5 C14.8 2.29, 16.1 3.59, 16.65 5.28 C17.2 6.98, 17.09 9.83, 16.59 11.69 C16.09 13.55, 15.16 15.53, 13.66 16.43 C12.17 17.33, 9.62 17.44, 7.62 17.1 C5.62 16.75, 2.98 15.73, 1.67 14.36 C0.37 12.99, -0.2 10.8, -0.22 8.87 C-0.23 6.94, 0.25 4.23, 1.59 2.77 C2.93 1.31, 6.76 0.55, 7.84 0.11 C8.92 -0.33, 8.15 0.06, 8.09 0.13 M9.57 -0.14 C11.39 -0.07, 14.38 1.63, 15.64 2.94 C16.89 4.26, 17.12 6.05, 17.09 7.74 C17.05 9.43, 16.35 11.59, 15.41 13.1 C14.48 14.61, 13.14 16.28, 11.48 16.8 C9.82 17.32, 7.16 16.99, 5.44 16.23 C3.73 15.47, 1.97 13.79, 1.2 12.22 C0.42 10.65, 0.49 8.69, 0.81 6.83 C1.14 4.97, 1.63 2.13, 3.14 1.05 C4.66 -0.03, 8.76 0.37, 9.91 0.33 C11.05 0.3, 10.12 0.81, 10.03 0.84" stroke="none" stroke-width="0" fill="#ffec99"></path><path d="M9.74 0.31 C11.62 0.38, 14.28 1.56, 15.62 2.88 C16.96 4.2, 17.8 6.3, 17.78 8.23 C17.76 10.17, 16.7 12.96, 15.5 14.48 C14.31 16.01, 12.41 17.09, 10.61 17.4 C8.81 17.71, 6.28 17.23, 4.67 16.36 C3.07 15.5, 1.62 13.99, 0.97 12.23 C0.31 10.47, 0.17 7.67, 0.75 5.83 C1.33 3.98, 2.75 2.15, 4.45 1.16 C6.14 0.17, 9.85 -0.01, 10.91 -0.1 C11.96 -0.19, 10.9 0.33, 10.77 0.6 M7.78 0.6 C9.69 0.11, 12.24 0.04, 13.88 1.05 C15.51 2.06, 17.04 4.83, 17.6 6.66 C18.16 8.48, 18.15 10.45, 17.25 12 C16.36 13.54, 14.08 14.97, 12.23 15.95 C10.38 16.93, 8.03 18.18, 6.18 17.89 C4.32 17.61, 2.24 15.82, 1.09 14.25 C-0.05 12.69, -0.83 10.37, -0.71 8.51 C-0.59 6.66, 0.31 4.44, 1.81 3.11 C3.32 1.78, 7.23 1.14, 8.31 0.55 C9.39 -0.05, 8.3 -0.49, 8.3 -0.46" stroke="#f08c00" stroke-width="1" fill="none"></path></g><g stroke-linecap="round" transform="translate(420.15396307974515 462.05635883193645) rotate(0 8.755230797343756 8.755230797343756)"><path d="M9.47 -0.34 C11.23 -0.42, 13.59 0.79, 14.98 2.21 C16.36 3.64, 17.58 6.31, 17.75 8.21 C17.92 10.1, 17.22 12.12, 15.99 13.58 C14.76 15.03, 12.15 16.44, 10.37 16.95 C8.58 17.45, 6.87 17.36, 5.26 16.58 C3.66 15.8, 1.48 14.06, 0.75 12.28 C0.01 10.49, 0.34 7.67, 0.83 5.88 C1.32 4.08, 2.1 2.49, 3.69 1.51 C5.27 0.53, 9.21 0.18, 10.32 -0.02 C11.43 -0.22, 10.38 0.1, 10.37 0.31 M9.35 0.61 C11.29 0.72, 14.57 1.29, 16.01 2.68 C17.45 4.08, 18.13 7.11, 18 8.97 C17.86 10.82, 16.48 12.35, 15.17 13.83 C13.87 15.3, 11.83 17.41, 10.17 17.84 C8.51 18.27, 6.82 17.28, 5.2 16.39 C3.59 15.5, 1.24 14.32, 0.48 12.5 C-0.28 10.67, -0.01 7.2, 0.65 5.45 C1.31 3.69, 2.98 2.75, 4.44 1.97 C5.89 1.19, 8.48 0.94, 9.38 0.77 C10.29 0.59, 9.76 0.91, 9.87 0.93" stroke="none" stroke-width="0" fill="#ced4da"></path><path d="M8.2 0.07 C9.92 -0.06, 12.24 0.9, 13.78 2 C15.31 3.11, 16.98 5.01, 17.43 6.69 C17.88 8.37, 17.3 10.43, 16.45 12.09 C15.6 13.75, 14.04 15.79, 12.36 16.67 C10.68 17.54, 8.17 17.85, 6.39 17.35 C4.6 16.85, 2.65 15.13, 1.65 13.66 C0.64 12.18, 0.16 10.34, 0.38 8.49 C0.6 6.64, 1.62 4.01, 2.97 2.56 C4.32 1.11, 7.55 0.21, 8.48 -0.22 C9.41 -0.64, 8.58 -0.23, 8.55 0 M11.11 0.7 C13.08 0.98, 15.08 2.03, 16.24 3.51 C17.41 4.98, 18.23 7.7, 18.11 9.55 C18 11.41, 16.83 13.29, 15.54 14.61 C14.25 15.93, 12.26 17.24, 10.38 17.5 C8.51 17.76, 6.01 17.18, 4.29 16.17 C2.57 15.16, 0.67 13.12, 0.04 11.43 C-0.58 9.75, -0.2 7.82, 0.54 6.05 C1.29 4.27, 2.72 1.79, 4.51 0.79 C6.31 -0.22, 10.36 0.1, 11.3 0.01 C12.25 -0.08, 10.27 0.09, 10.2 0.27" stroke="#1e1e1e" stroke-width="1" fill="none"></path></g><g stroke-linecap="round" transform="translate(130.9100266952264 187.20974113587454) rotate(0 123.77835539693751 161.7668870664752)"><path d="M0 0 C93.78 2.78, 185.76 3.53, 247.56 0 M247.56 0 C247.55 96.77, 247.33 196.26, 247.56 323.53 M247.56 323.53 C153.35 322.41, 56.85 323.57, 0 323.53 M0 323.53 C-0.31 220.98, -1.97 116.54, 0 0" stroke="#1e1e1e" stroke-width="1.5" fill="none" stroke-dasharray="1.5 7"></path></g><g stroke-linecap="round"><g transform="translate(178.69274423475144 288.72367089782347) rotate(0 28.399782969039734 -36.49907231899215)"><path d="M0 0 C1.44 -26.71, -1.29 -55.97, 0.13 -72.76 M0 0 C0.75 -26.18, -0.54 -50.37, 0.13 -72.76 M0.13 -72.76 C13.5 -73.63, 25.11 -71.77, 57.09 -72.76 M0.13 -72.76 C18.62 -72.5, 35.72 -72.49, 57.09 -72.76" stroke="#1e1e1e" stroke-width="1" fill="none"></path></g><g transform="translate(178.69274423475144 288.72367089782347) rotate(0 28.399782969039734 -36.49907231899215)"><path d="M55.71 -70.92 L42.53 -65.71 L44.27 -79.23 L57.51 -70.97" stroke="none" stroke-width="0" fill="#1e1e1e" fill-rule="evenodd"></path><path d="M57.09 -72.76 C52.98 -69.71, 45.75 -68.47, 43.55 -66.29 M57.09 -72.76 C52.79 -70.97, 47.04 -67.74, 43.55 -66.29 M43.55 -66.29 C43.7 -69.87, 42.63 -71.64, 43.44 -78.97 M43.55 -66.29 C44.1 -69.91, 43.79 -73.8, 43.44 -78.97 M43.44 -78.97 C47.88 -75.16, 53.59 -74.79, 57.09 -72.76 M43.44 -78.97 C46.73 -76.92, 51.21 -75.26, 57.09 -72.76 M57.09 -72.76 C57.09 -72.76, 57.09 -72.76, 57.09 -72.76 M57.09 -72.76 C57.09 -72.76, 57.09 -72.76, 57.09 -72.76" stroke="#1e1e1e" stroke-width="1" fill="none"></path></g></g><mask></mask><g stroke-linecap="round"><g transform="translate(222.71777221173215 465.88409485770626) rotate(180 -22.463555480015202 -56.23511389591022)"><path d="M0 0 C0.72 -24.21, 1 -46.26, -2 -112.01 M0 0 C-0.71 -40.94, -1.75 -80.78, -2 -112.01 M-2 -112.01 C-15.91 -113.31, -28.12 -111.36, -45.4 -112.01 M-2 -112.01 C-19.07 -111.81, -34.64 -112.6, -45.4 -112.01" stroke="#1e1e1e" stroke-width="1" fill="none"></path></g><g transform="translate(222.71777221173215 465.88409485770626) rotate(180 -22.463555480015202 -56.23511389591022)"><path d="M-44.33 -113.6 L-31.38 -118.75 L-31.57 -107.81 L-46.27 -111.17" stroke="none" stroke-width="0" fill="#1e1e1e" fill-rule="evenodd"></path><path d="M-45.4 -112.01 C-42.32 -113.93, -38.99 -114.36, -31.94 -118.63 M-45.4 -112.01 C-40.55 -114.83, -35.92 -116.73, -31.94 -118.63 M-31.94 -118.63 C-32.57 -115.55, -32.1 -110.57, -31.68 -105.95 M-31.94 -118.63 C-32.14 -113.88, -31.49 -109.58, -31.68 -105.95 M-31.68 -105.95 C-35.39 -106.5, -38.97 -109.09, -45.4 -112.01 M-31.68 -105.95 C-34.25 -106.48, -37.66 -108.68, -45.4 -112.01 M-45.4 -112.01 C-45.4 -112.01, -45.4 -112.01, -45.4 -112.01 M-45.4 -112.01 C-45.4 -112.01, -45.4 -112.01, -45.4 -112.01" stroke="#1e1e1e" stroke-width="1" fill="none"></path></g></g><mask></mask><g stroke-linecap="round"><g transform="translate(225.04553520398076 399.29165828488476) rotate(180 -23.332312439577436 -22.40361236637409)"><path d="M0 0 C0.37 -16.79, -0.79 -33.61, 0 -44.74 M0 0 C0.18 -18.05, 0.2 -35.21, 0 -44.74 M0 -44.74 C-8.9 -44.98, -18.59 -44.45, -46.81 -44.74 M0 -44.74 C-14.93 -44.83, -31.08 -44.48, -46.81 -44.74" stroke="#1e1e1e" stroke-width="1" fill="none"></path></g><g transform="translate(225.04553520398076 399.29165828488476) rotate(180 -23.332312439577436 -22.40361236637409)"><path d="M-45.96 -45.16 L-33.71 -51.24 L-32.33 -39.28 L-47.49 -44.46" stroke="none" stroke-width="0" fill="#1e1e1e" fill-rule="evenodd"></path><path d="M-46.81 -44.74 C-41.49 -47.17, -37.27 -49.59, -33.17 -50.99 M-46.81 -44.74 C-41.22 -47.48, -35.81 -49.55, -33.17 -50.99 M-33.17 -50.99 C-32.82 -48.53, -33.04 -45.66, -33.26 -38.31 M-33.17 -50.99 C-33 -46.84, -33.55 -42.46, -33.26 -38.31 M-33.26 -38.31 C-37.56 -40.67, -42.38 -42.34, -46.81 -44.74 M-33.26 -38.31 C-36.6 -40.05, -39.54 -41.21, -46.81 -44.74 M-46.81 -44.74 C-46.81 -44.74, -46.81 -44.74, -46.81 -44.74 M-46.81 -44.74 C-46.81 -44.74, -46.81 -44.74, -46.81 -44.74" stroke="#1e1e1e" stroke-width="1" fill="none"></path></g></g><mask></mask><g stroke-linecap="round"><g transform="translate(195.1715344984259 334.98392994552887) rotate(0 15.356280632468042 0.14578700846232096)"><path d="M0 0 C9.51 0.02, 21.94 0.65, 30.71 0 M0 0 C10.04 0.04, 19.21 0.07, 30.71 0" stroke="#1e1e1e" stroke-width="1" fill="none"></path></g><g transform="translate(195.1715344984259 334.98392994552887) rotate(0 15.356280632468042 0.14578700846232096)"><path d="M30.16 -0.07 L17.09 6.35 L17.33 -6.97 L30.91 -0.54" stroke="none" stroke-width="0" fill="#1e1e1e" fill-rule="evenodd"></path><path d="M30.71 0 C25.32 2.25, 22.15 4.9, 17.14 6.39 M30.71 0 C26.72 1.95, 22.04 3.99, 17.14 6.39 M17.14 6.39 C16.78 2.43, 17.72 -2.28, 17.09 -6.29 M17.14 6.39 C17.35 3.18, 16.89 -0.34, 17.09 -6.29 M17.09 -6.29 C20.6 -4.14, 24.55 -2.31, 30.71 0 M17.09 -6.29 C21.66 -4.07, 26.07 -2.32, 30.71 0 M30.71 0 C30.71 0, 30.71 0, 30.71 0 M30.71 0 C30.71 0, 30.71 0, 30.71 0" stroke="#1e1e1e" stroke-width="1" fill="none"></path></g></g><mask></mask><g transform="translate(147.4245166056062 292.61581149947415) rotate(0 35.09126911947351 13.539071124418115)"><text x="35.091269119473516" y="10.894721295430088" font-family="Cascadia, Segoe UI Emoji" font-size="11.282559270348312px" fill="#e03131" text-anchor="middle" style="white-space: pre;" direction="ltr" dominant-baseline="alphabetic">Query </text><text x="35.091269119473516" y="24.43379241984806" font-family="Cascadia, Segoe UI Emoji" font-size="11.282559270348312px" fill="#e03131" text-anchor="middle" style="white-space: pre;" direction="ltr" dominant-baseline="alphabetic">Analysis</text></g><g transform="translate(239.94050981830878 208.67746004159108) rotate(0 59.90516133877554 6.769535562209057)"><text x="59.90516133877558" y="10.894721295430088" font-family="Cascadia, Segoe UI Emoji" font-size="11.282559270348312px" fill="#e03131" text-anchor="middle" style="white-space: pre;" direction="ltr" dominant-baseline="alphabetic">[related to index]</text></g><g transform="translate(224.62329239898827 391.5650360282907) rotate(0 73.99700136455158 13.539071124418115)"><text x="73.99700136455162" y="10.894721295430088" font-family="Cascadia, Segoe UI Emoji" font-size="11.282559270348312px" fill="#e03131" text-anchor="middle" style="white-space: pre;" direction="ltr" dominant-baseline="alphabetic">[unrelated to other </text><text x="73.99700136455162" y="24.43379241984806" font-family="Cascadia, Segoe UI Emoji" font-size="11.282559270348312px" fill="#e03131" text-anchor="middle" style="white-space: pre;" direction="ltr" dominant-baseline="alphabetic">tools]</text></g><g transform="translate(208.99973063127982 327.84541156391333) rotate(0 73.99700136455158 6.769535562209057)"><text x="73.99700136455162" y="10.894721295430088" font-family="Cascadia, Segoe UI Emoji" font-size="11.282559270348312px" fill="#e03131" text-anchor="middle" style="white-space: pre;" direction="ltr" dominant-baseline="alphabetic">[related to SQL]</text></g><g transform="translate(222.47888196028362 453.64357525398464) rotate(0 73.99700136455158 13.539071124418115)"><text x="73.99700136455162" y="10.894721295430088" font-family="Cascadia, Segoe UI Emoji" font-size="11.282559270348312px" fill="#e03131" text-anchor="middle" style="white-space: pre;" direction="ltr" dominant-baseline="alphabetic">[casual conversation</text><text x="73.99700136455162" y="24.43379241984806" font-family="Cascadia, Segoe UI Emoji" font-size="11.282559270348312px" fill="#e03131" text-anchor="middle" style="white-space: pre;" direction="ltr" dominant-baseline="alphabetic">or fallback]</text></g><g stroke-linecap="round" transform="translate(517.3965307153594 392.5388637142196) rotate(0 8.755230797343756 8.755230797343756)"><path d="M7.7 -0.3 C9.58 -0.59, 12.51 0.84, 14.16 1.9 C15.82 2.96, 17.16 4.31, 17.63 6.06 C18.1 7.81, 17.93 10.65, 17 12.42 C16.07 14.18, 13.71 15.84, 12.04 16.66 C10.36 17.49, 8.68 17.9, 6.93 17.34 C5.18 16.79, 2.73 14.89, 1.54 13.35 C0.34 11.82, -0.42 9.94, -0.24 8.14 C-0.06 6.34, 1.28 3.97, 2.64 2.55 C3.99 1.12, 6.97 -0.08, 7.9 -0.41 C8.83 -0.73, 8.19 0.39, 8.19 0.59 M9.15 0.05 C11.04 0.14, 14.45 1.74, 15.83 3.16 C17.22 4.58, 17.41 6.87, 17.47 8.59 C17.53 10.31, 17.18 11.96, 16.19 13.49 C15.2 15.01, 13.34 17.11, 11.55 17.75 C9.75 18.38, 7.17 18.16, 5.44 17.29 C3.72 16.43, 2.09 14.38, 1.21 12.55 C0.33 10.71, -0.28 8.14, 0.14 6.3 C0.56 4.46, 2.09 2.64, 3.71 1.51 C5.34 0.38, 8.82 -0.19, 9.88 -0.49 C10.94 -0.79, 10.24 -0.53, 10.08 -0.28" stroke="none" stroke-width="0" fill="#ffec99"></path><path d="M9.71 -0.16 C11.59 -0.15, 13.95 0.73, 15.24 2.05 C16.52 3.37, 17.29 5.83, 17.43 7.77 C17.57 9.71, 17.14 12.13, 16.08 13.67 C15.02 15.21, 12.96 16.46, 11.07 17 C9.19 17.54, 6.43 17.6, 4.76 16.92 C3.09 16.23, 1.89 14.6, 1.07 12.89 C0.25 11.17, -0.49 8.47, -0.15 6.62 C0.2 4.76, 1.44 2.91, 3.13 1.76 C4.83 0.61, 8.9 -0.13, 10.04 -0.3 C11.18 -0.47, 10.11 0.51, 9.98 0.72 M7.54 -0.44 C9.39 -0.91, 11.35 0, 12.96 1.04 C14.58 2.09, 16.47 4.06, 17.25 5.84 C18.03 7.62, 18.38 10.04, 17.67 11.73 C16.95 13.42, 14.7 14.99, 12.97 15.96 C11.23 16.93, 9.12 17.86, 7.26 17.56 C5.41 17.25, 2.93 15.54, 1.84 14.12 C0.75 12.71, 0.68 10.8, 0.73 9.08 C0.79 7.36, 1.21 5.24, 2.17 3.79 C3.13 2.33, 5.81 1.01, 6.51 0.35 C7.21 -0.31, 6.31 -0.17, 6.37 -0.17" stroke="#f08c00" stroke-width="1" fill="none"></path></g><g transform="translate(391.55242261739113 309.0440285416844) rotate(0 31.692100595995726 6.458119163809897)"><text x="31.692100595995726" y="9.051699819995635" font-family="Virgil, Segoe UI Emoji" font-size="10.332990662095474px" fill="#2f9e44" text-anchor="middle" style="white-space: pre;" direction="ltr" dominant-baseline="alphabetic">SQL Agent</text></g><g transform="translate(493.855903723741 325.17710153415464) rotate(0 78.82253572919035 6.458119163809897)"><text x="78.8225357291903" y="9.051699819995635" font-family="Virgil, Segoe UI Emoji" font-size="10.332990662095474px" fill="#2f9e44" text-anchor="middle" style="white-space: pre;" direction="ltr" dominant-baseline="alphabetic">Answer w/ SQL query</text></g><g transform="translate(394.07800022890297 370.28900568996687) rotate(0 31.692100595995726 6.199794397257392)"><text x="31.692100595995726" y="9.977794108085943" font-family="Cascadia, Segoe UI Emoji" font-size="10.332990662095474px" fill="#f08c00" text-anchor="middle" style="white-space: pre;" direction="ltr" dominant-baseline="alphabetic">Web Search</text></g><g transform="translate(495.7898704889194 361.1718235126782) rotate(0 31.692100595995726 12.399588794514784)"><text x="31.692100595995726" y="9.977794108085943" font-family="Cascadia, Segoe UI Emoji" font-size="10.332990662095474px" fill="#f08c00" text-anchor="middle" style="white-space: pre;" direction="ltr" dominant-baseline="alphabetic">Generate</text><text x="31.692100595995726" y="22.377382902600512" font-family="Cascadia, Segoe UI Emoji" font-size="10.332990662095474px" fill="#f08c00" text-anchor="middle" style="white-space: pre;" direction="ltr" dominant-baseline="alphabetic">(Node)</text></g><g transform="translate(582.880478202138 394.40808066111913) rotate(0 65.45888298632599 6.458119163809897)"><text x="65.45888298632595" y="9.051699819995635" font-family="Virgil, Segoe UI Emoji" font-size="10.332990662095474px" fill="#f08c00" text-anchor="middle" style="white-space: pre;" direction="ltr" dominant-baseline="alphabetic">Answer w/ web search</text></g><g transform="translate(390.04640727867627 443.41461089591303) rotate(0 39.5995195676378 6.199794397257392)"><text x="39.59951956763781" y="9.977794108085943" font-family="Cascadia, Segoe UI Emoji" font-size="10.332990662095474px" fill="#1e1e1e" text-anchor="middle" style="white-space: pre;" direction="ltr" dominant-baseline="alphabetic">fallback LLM</text></g><g transform="translate(494.9970229006649 463.1233041549849) rotate(0 78.82253572919035 6.458119163809897)"><text x="78.8225357291903" y="9.051699819995635" font-family="Virgil, Segoe UI Emoji" font-size="10.332990662095474px" fill="#1e1e1e" text-anchor="middle" style="white-space: pre;" direction="ltr" dominant-baseline="alphabetic">casual conversation</text></g><g stroke-linecap="round"><g transform="translate(340.75650831439634 335.31212744959976) rotate(0 33.8101261886286 -0.8560780765137679)"><path d="M0 0 C20.25 -0.95, 36.35 -1.02, 67.62 -1.87 M0 0 C19.4 0.45, 38.45 -0.01, 67.62 -1.87" stroke="#1e1e1e" stroke-width="1" fill="none"></path></g><g transform="translate(340.75650831439634 335.31212744959976) rotate(0 33.8101261886286 -0.8560780765137679)"><path d="M69.32 -2.32 L55.69 5.87 L52.27 -6.92 L67.16 -2.63" stroke="none" stroke-width="0" fill="#1e1e1e" fill-rule="evenodd"></path><path d="M67.62 -1.87 C65.09 -0.36, 59.37 1.95, 54.39 5.2 M67.62 -1.87 C63.69 0.3, 59.45 2.41, 54.39 5.2 M54.39 5.2 C54.64 1.94, 53.93 -2.18, 53.7 -7.45 M54.39 5.2 C54.05 2.14, 54.11 0.24, 53.7 -7.45 M53.7 -7.45 C57.14 -6.84, 62.12 -3.87, 67.62 -1.87 M53.7 -7.45 C56.95 -5.83, 59.62 -5.57, 67.62 -1.87 M67.62 -1.87 C67.62 -1.87, 67.62 -1.87, 67.62 -1.87 M67.62 -1.87 C67.62 -1.87, 67.62 -1.87, 67.62 -1.87" stroke="#1e1e1e" stroke-width="1" fill="none"></path></g></g><mask></mask><g stroke-linecap="round"><g transform="translate(443.1531645664345 333.3130604078033) rotate(0 33.8101261886286 -1.0925738552741677)"><path d="M0 0 C25.54 -1.31, 48.72 0.06, 67.62 -1.87 M0 0 C25.91 -2.15, 52.89 -2.58, 67.62 -1.87" stroke="#1e1e1e" stroke-width="1" fill="none"></path></g><g transform="translate(443.1531645664345 333.3130604078033) rotate(0 33.8101261886286 -1.0925738552741677)"><path d="M66.63 -1.91 L55.15 5.65 L55.78 -7.15 L66.28 -3.19" stroke="none" stroke-width="0" fill="#1e1e1e" fill-rule="evenodd"></path><path d="M67.62 -1.87 C63.38 -0.08, 57.31 3.67, 53.91 4.2 M67.62 -1.87 C62.09 0, 57.42 2.57, 53.91 4.2 M53.91 4.2 C52.83 1.4, 53.6 -3.34, 54.15 -8.47 M53.91 4.2 C53.99 0.44, 53.74 -4.67, 54.15 -8.47 M54.15 -8.47 C58.59 -5.18, 63.31 -4.49, 67.62 -1.87 M54.15 -8.47 C57.75 -6.46, 61.18 -5.21, 67.62 -1.87 M67.62 -1.87 C67.62 -1.87, 67.62 -1.87, 67.62 -1.87 M67.62 -1.87 C67.62 -1.87, 67.62 -1.87, 67.62 -1.87" stroke="#1e1e1e" stroke-width="1" fill="none"></path></g></g><mask></mask><g stroke-linecap="round"><g transform="translate(364.7880074354871 400.8718483462553) rotate(0 24.153634125545977 -0.2885757542180727)"><path d="M0 0 C9.96 -0.28, 20.52 -1.15, 48.31 0 M0 0 C16.46 -0.12, 32.98 0.02, 48.31 0" stroke="#1e1e1e" stroke-width="1" fill="none"></path></g><g transform="translate(364.7880074354871 400.8718483462553) rotate(0 24.153634125545977 -0.2885757542180727)"><path d="M48.75 -0.78 L34.51 5.59 L34 -6.74 L48.94 0.45" stroke="none" stroke-width="0" fill="#1e1e1e" fill-rule="evenodd"></path><path d="M48.31 0 C45.15 1.32, 42.47 2.02, 34.71 6.33 M48.31 0 C43.63 2.29, 38.99 4.56, 34.71 6.33 M34.71 6.33 C34.89 2.16, 34.66 -0.24, 34.72 -6.35 M34.71 6.33 C34.5 1.99, 34.86 -2.46, 34.72 -6.35 M34.72 -6.35 C38.67 -3.83, 42.44 -2.78, 48.31 0 M34.72 -6.35 C39.99 -3.69, 45.37 -1.72, 48.31 0 M48.31 0 C48.31 0, 48.31 0, 48.31 0 M48.31 0 C48.31 0, 48.31 0, 48.31 0" stroke="#1e1e1e" stroke-width="1" fill="none"></path></g></g><mask></mask><g stroke-linecap="round"><g transform="translate(443.1531645664345 402.00223550612645) rotate(0 33.8101261886286 -0.08624485338032173)"><path d="M0 0 C19.82 -0.85, 44.1 1.27, 67.62 -0.02 M0 0 C26.6 0.04, 54.81 -1.3, 67.62 -0.02" stroke="#1e1e1e" stroke-width="1" fill="none"></path></g><g transform="translate(443.1531645664345 402.00223550612645) rotate(0 33.8101261886286 -0.08624485338032173)"><path d="M65.68 0.89 L54.23 7.68 L52.66 -7.72 L68.88 1.46" stroke="none" stroke-width="0" fill="#1e1e1e" fill-rule="evenodd"></path><path d="M67.62 -0.02 C61.89 1.35, 59.52 4.81, 53.8 5.82 M67.62 -0.02 C61.92 2.89, 57.37 4.22, 53.8 5.82 M53.8 5.82 C53.44 0.79, 55.23 -2.88, 54.26 -6.85 M53.8 5.82 C53.57 2.03, 53.83 -1.12, 54.26 -6.85 M54.26 -6.85 C58.31 -4.1, 63.49 -1.86, 67.62 -0.02 M54.26 -6.85 C57.83 -4.66, 61.34 -3.55, 67.62 -0.02 M67.62 -0.02 C67.62 -0.02, 67.62 -0.02, 67.62 -0.02 M67.62 -0.02 C67.62 -0.02, 67.62 -0.02, 67.62 -0.02" stroke="#1e1e1e" stroke-width="1" fill="none"></path></g></g><mask></mask><g stroke-linecap="round"><g transform="translate(539.9060104247746 402.00223550612645) rotate(0 23.24417065417947 0.1740014187603265)"><path d="M0 0 C16.02 -0.08, 31.33 0.83, 46.49 0 M0 0 C17.93 0.53, 36.54 0.27, 46.49 0" stroke="#1e1e1e" stroke-width="1" fill="none"></path></g><g transform="translate(539.9060104247746 402.00223550612645) rotate(0 23.24417065417947 0.1740014187603265)"><path d="M46.97 0.28 L33.29 6.29 L32.16 -5.49 L45.61 -0.64" stroke="none" stroke-width="0" fill="#1e1e1e" fill-rule="evenodd"></path><path d="M46.49 0 C41.95 2.37, 36.85 5.32, 33.02 6.61 M46.49 0 C41.2 2.89, 36.39 5.27, 33.02 6.61 M33.02 6.61 C33.05 3.29, 32.42 0.25, 32.77 -6.07 M33.02 6.61 C32.64 2.58, 32.62 -1.61, 32.77 -6.07 M32.77 -6.07 C36.4 -4.66, 39.8 -3.19, 46.49 0 M32.77 -6.07 C37.23 -4.41, 41.63 -2.54, 46.49 0 M46.49 0 C46.49 0, 46.49 0, 46.49 0 M46.49 0 C46.49 0, 46.49 0, 46.49 0" stroke="#1e1e1e" stroke-width="1" fill="none"></path></g></g><mask></mask><g stroke-linecap="round"><g transform="translate(446.6617951082426 470.8253730569668) rotate(0 33.8101261886286 -0.2477399313179376)"><path d="M0 0 C21.55 0.23, 44.1 -1.77, 67.62 -0.02 M0 0 C13.63 0.13, 26.96 0.5, 67.62 -0.02" stroke="#1e1e1e" stroke-width="1" fill="none"></path></g><g transform="translate(446.6617951082426 470.8253730569668) rotate(0 33.8101261886286 -0.2477399313179376)"><path d="M69.03 -1.63 L53.58 5.57 L52.37 -4.46 L69.25 -0.84" stroke="none" stroke-width="0" fill="#1e1e1e" fill-rule="evenodd"></path><path d="M67.62 -0.02 C63.68 2.13, 60.45 2.66, 54.08 6.43 M67.62 -0.02 C64.78 0.93, 61.71 2.52, 54.08 6.43 M54.08 6.43 C54.84 2.03, 55.06 -2.53, 53.97 -6.24 M54.08 6.43 C54.19 1.49, 54.42 -3.64, 53.97 -6.24 M53.97 -6.24 C57.07 -4.12, 59.22 -2.09, 67.62 -0.02 M53.97 -6.24 C57.15 -5.02, 61.14 -2.52, 67.62 -0.02 M67.62 -0.02 C67.62 -0.02, 67.62 -0.02, 67.62 -0.02 M67.62 -0.02 C67.62 -0.02, 67.62 -0.02, 67.62 -0.02" stroke="#1e1e1e" stroke-width="1" fill="none"></path></g></g><mask></mask><g stroke-linecap="round"><g transform="translate(359.2086481526658 470.96265391973157) rotate(0 27.58931197500715 0.46304939924175414)"><path d="M0 0 C22.54 1.52, 42.18 0.91, 55.18 0 M0 0 C19.01 1.06, 39.06 0.75, 55.18 0" stroke="#1e1e1e" stroke-width="1" fill="none"></path></g><g transform="translate(359.2086481526658 470.96265391973157) rotate(0 27.58931197500715 0.46304939924175414)"><path d="M56.41 1.86 L40.57 8.73 L43.22 -5.94 L53.71 1.9" stroke="none" stroke-width="0" fill="#1e1e1e" fill-rule="evenodd"></path><path d="M55.18 0 C51.48 3.28, 45.58 5.39, 41.81 6.8 M55.18 0 C50.23 3.04, 46.1 5.19, 41.81 6.8 M41.81 6.8 C42.68 2.97, 40.99 1.93, 41.37 -5.87 M41.81 6.8 C42.17 1.66, 41.78 -3.12, 41.37 -5.87 M41.37 -5.87 C44.38 -4.19, 50.24 -3.01, 55.18 0 M41.37 -5.87 C44.77 -4.78, 49.7 -2.9, 55.18 0 M55.18 0 C55.18 0, 55.18 0, 55.18 0 M55.18 0 C55.18 0, 55.18 0, 55.18 0" stroke="#1e1e1e" stroke-width="1" fill="none"></path></g></g><mask></mask><g stroke-linecap="round" transform="translate(482.95669692690353 162.91486725358845) rotate(0 8.755230797343756 8.755230797343756)"><path d="M7.6 0 C9.37 -0.47, 11.79 -0.2, 13.4 0.69 C15.02 1.57, 16.72 3.41, 17.28 5.31 C17.85 7.22, 17.53 10.28, 16.77 12.13 C16.02 13.98, 14.27 15.53, 12.73 16.4 C11.19 17.27, 9.33 17.71, 7.52 17.32 C5.7 16.94, 3.15 15.53, 1.83 14.11 C0.51 12.68, -0.51 10.52, -0.4 8.78 C-0.29 7.03, 1.29 5, 2.5 3.62 C3.7 2.24, 6.05 1.1, 6.85 0.49 C7.66 -0.12, 7.28 -0.05, 7.33 -0.04 M10.62 0.22 C12.25 0.59, 14.7 1.59, 15.81 3.22 C16.92 4.86, 17.4 7.98, 17.3 10.02 C17.2 12.06, 16.61 14.1, 15.21 15.46 C13.81 16.81, 10.76 18.07, 8.89 18.16 C7.02 18.24, 5.44 17.24, 3.99 15.98 C2.53 14.73, 0.76 12.54, 0.16 10.64 C-0.43 8.73, -0.42 6.18, 0.43 4.56 C1.27 2.94, 3.43 1.51, 5.22 0.91 C7.01 0.31, 10.23 0.94, 11.17 0.96 C12.1 0.98, 10.89 0.9, 10.83 1.04" stroke="none" stroke-width="0" fill="#a5d8ff"></path><path d="M9.96 -0.14 C11.69 0.13, 13.8 1.83, 15.05 3.38 C16.3 4.93, 17.36 7.39, 17.45 9.17 C17.54 10.96, 16.74 12.7, 15.59 14.09 C14.45 15.47, 12.54 17.15, 10.59 17.47 C8.63 17.79, 5.5 17.02, 3.86 16.02 C2.22 15.02, 1.33 13.14, 0.74 11.47 C0.15 9.79, -0.28 7.69, 0.31 5.97 C0.89 4.24, 2.61 2.07, 4.26 1.14 C5.91 0.21, 9.17 0.57, 10.22 0.39 C11.26 0.21, 10.47 -0.08, 10.55 0.04 M9.23 0.39 C10.88 0.33, 12.9 1.36, 14.32 2.66 C15.73 3.95, 17.52 6.45, 17.71 8.18 C17.9 9.91, 16.49 11.57, 15.46 13.04 C14.43 14.51, 13.17 16.25, 11.55 16.99 C9.93 17.72, 7.52 18.14, 5.76 17.46 C3.99 16.78, 1.84 14.57, 0.97 12.92 C0.09 11.27, 0.08 9.31, 0.51 7.56 C0.93 5.81, 2.03 3.63, 3.51 2.44 C4.99 1.25, 8.41 0.91, 9.37 0.43 C10.32 -0.05, 9.42 -0.54, 9.24 -0.44" stroke="#1971c2" stroke-width="1" fill="none"></path></g><g stroke-linecap="round" transform="translate(564.5358662117451 163.44675764886597) rotate(0 8.755230797343756 8.755230797343756)"><path d="M10.27 -0.33 C11.97 -0.21, 13.65 1.45, 14.88 2.98 C16.12 4.5, 17.57 7.03, 17.68 8.82 C17.8 10.61, 16.78 12.35, 15.55 13.72 C14.31 15.08, 12.05 16.59, 10.28 17.03 C8.5 17.46, 6.48 17.22, 4.88 16.33 C3.27 15.45, 1.37 13.33, 0.64 11.71 C-0.09 10.09, -0.11 8.32, 0.51 6.63 C1.12 4.94, 2.75 2.7, 4.34 1.59 C5.93 0.48, 8.99 0.1, 10.04 -0.04 C11.09 -0.18, 10.68 0.61, 10.65 0.73 M10.66 0.07 C12.54 0.16, 14.43 1.33, 15.56 2.85 C16.68 4.37, 17.5 7.11, 17.39 9.17 C17.28 11.24, 16.09 13.91, 14.88 15.26 C13.67 16.6, 11.86 17.04, 10.13 17.23 C8.4 17.41, 6.08 17.41, 4.51 16.36 C2.93 15.32, 1.32 12.68, 0.65 10.98 C-0.01 9.28, -0.15 7.83, 0.53 6.18 C1.21 4.53, 3.09 2.02, 4.73 1.07 C6.37 0.13, 9.5 0.54, 10.36 0.51 C11.21 0.48, 9.88 0.85, 9.87 0.89" stroke="none" stroke-width="0" fill="#a5d8ff"></path><path d="M7.39 0.45 C9.24 -0.11, 11.94 -0.09, 13.48 0.77 C15.01 1.63, 16.12 3.81, 16.63 5.61 C17.13 7.42, 17.15 9.79, 16.51 11.59 C15.87 13.39, 14.23 15.47, 12.77 16.43 C11.3 17.39, 9.57 17.64, 7.73 17.36 C5.89 17.07, 2.93 16.07, 1.72 14.71 C0.5 13.36, 0.39 11.19, 0.44 9.23 C0.49 7.27, 0.84 4.48, 2.01 2.96 C3.18 1.43, 6.52 0.49, 7.46 0.09 C8.4 -0.31, 7.71 0.41, 7.67 0.54 M6.6 0.31 C8.3 -0.31, 11.56 -0.11, 13.31 0.8 C15.06 1.71, 16.41 4.12, 17.13 5.78 C17.84 7.44, 18.08 8.95, 17.58 10.77 C17.08 12.58, 15.88 15.62, 14.15 16.67 C12.42 17.73, 9.25 17.44, 7.2 17.12 C5.15 16.79, 3.05 16.08, 1.85 14.73 C0.65 13.38, -0.08 10.88, 0 8.99 C0.09 7.1, 1.16 4.77, 2.37 3.39 C3.57 2, 6.53 1.26, 7.24 0.69 C7.95 0.12, 6.77 -0.12, 6.62 -0.02" stroke="#1971c2" stroke-width="1" fill="none"></path></g><g stroke-linecap="round" transform="translate(721.7120812536086 222.9860088109508) rotate(0 8.755230797343756 8.755230797343756)"><path d="M6.94 0.03 C8.72 -0.56, 11.41 -0.26, 13.08 0.6 C14.75 1.46, 16.3 3.33, 16.94 5.18 C17.58 7.03, 17.48 9.87, 16.92 11.72 C16.36 13.56, 15.08 15.23, 13.58 16.23 C12.08 17.23, 9.81 18.04, 7.9 17.71 C5.99 17.39, 3.5 15.73, 2.13 14.27 C0.75 12.81, -0.25 10.8, -0.33 8.96 C-0.42 7.13, 0.44 4.7, 1.62 3.28 C2.79 1.86, 5.7 1.02, 6.69 0.46 C7.68 -0.11, 7.48 -0.12, 7.55 -0.1 M7.88 -0.19 C9.49 -0.5, 11.51 0.49, 13.02 1.44 C14.54 2.38, 16.19 3.7, 16.97 5.47 C17.74 7.25, 18.43 10.2, 17.67 12.08 C16.9 13.96, 14.2 15.78, 12.39 16.73 C10.59 17.69, 8.63 18.25, 6.84 17.8 C5.05 17.35, 2.75 15.66, 1.65 14.04 C0.55 12.42, 0.09 9.8, 0.22 8.09 C0.36 6.38, 1.26 5.01, 2.46 3.78 C3.67 2.55, 6.63 1.25, 7.46 0.7 C8.28 0.16, 7.46 0.58, 7.43 0.52" stroke="none" stroke-width="0" fill="#a5d8ff"></path><path d="M6.57 0.21 C8.37 -0.19, 11.48 0.33, 13.15 1.29 C14.82 2.25, 15.97 4.23, 16.59 5.98 C17.22 7.72, 17.43 10.07, 16.92 11.75 C16.4 13.43, 15.1 15.15, 13.49 16.05 C11.89 16.95, 9.09 17.45, 7.28 17.14 C5.47 16.84, 3.82 15.54, 2.66 14.23 C1.5 12.92, 0.46 11.07, 0.31 9.28 C0.17 7.49, 0.6 4.94, 1.77 3.48 C2.95 2.02, 6.38 1.12, 7.34 0.52 C8.31 -0.08, 7.54 -0.16, 7.56 -0.13 M6.97 1.01 C8.55 0.37, 10.14 -0.51, 11.81 0.16 C13.47 0.83, 16.02 3.1, 16.95 5.02 C17.89 6.94, 18.05 9.82, 17.43 11.67 C16.81 13.53, 14.8 15.18, 13.23 16.16 C11.67 17.14, 9.95 17.65, 8.07 17.54 C6.18 17.42, 3.19 16.84, 1.91 15.46 C0.64 14.08, 0.56 11.1, 0.41 9.25 C0.25 7.39, 0.06 5.74, 1 4.33 C1.94 2.93, 5.2 1.5, 6.06 0.83 C6.91 0.16, 6 0.38, 6.15 0.33" stroke="#1971c2" stroke-width="1" fill="none"></path></g><g stroke-linecap="round" transform="translate(643.081865829281 160.9037607642822) rotate(0 11.094247566144077 11.843858888179966)"><path d="M11.58 0.01 L22.98 12.02 L12.58 23.61 L0.3 11.23" stroke="none" stroke-width="0" fill="#a5d8ff" fill-rule="evenodd"></path><path d="M12 0 C16.21 3.95, 20.36 8.8, 22.19 12 M12 0 C14.15 3.01, 17.4 5.6, 22.19 12 M22.19 12 C19.85 14.77, 16.38 18.62, 12 23.69 M22.19 12 C20.1 14.45, 18.36 16.89, 12 23.69 M12 23.69 C10.21 20.71, 7.32 18.75, 0 12 M12 23.69 C9.75 21.02, 6.89 18.99, 0 12 M0 12 C3.79 8.82, 5.56 6.14, 12 0 M0 12 C4.4 7.32, 8.19 3.75, 12 0" stroke="#1e1e1e" stroke-width="1" fill="none"></path></g><g stroke-linecap="round" transform="translate(793.3735666706125 123.49554948361765) rotate(0 11.094247566144077 11.843858888179966)"><path d="M11.43 -0.48 L21.49 12.42 L12.44 23.95 L0.32 11.85" stroke="none" stroke-width="0" fill="#a5d8ff" fill-rule="evenodd"></path><path d="M12 0 C14.27 2.46, 17.85 5.75, 22.19 12 M12 0 C14.13 2.19, 16.18 5.14, 22.19 12 M22.19 12 C18.05 15.32, 15.63 19.63, 12 23.69 M22.19 12 C19.57 15.24, 17.14 18.11, 12 23.69 M12 23.69 C8.51 19.47, 2.96 15.58, 0 12 M12 23.69 C8.93 20.41, 5.54 16.98, 0 12 M0 12 C2.59 8.8, 6.28 6.69, 12 0 M0 12 C3.52 8.29, 7.09 5.1, 12 0" stroke="#1e1e1e" stroke-width="1" fill="none"></path></g><g transform="translate(463.8385388004299 127.2466598425708) rotate(0 26.191162718150736 13.409875311693213)"><text x="26.19116271815102" y="10.79075903987822" font-family="Cascadia, Segoe UI Emoji" font-size="11.174896093077768px" fill="#1971c2" text-anchor="middle" style="white-space: pre;" direction="ltr" dominant-baseline="alphabetic">Retrieve</text><text x="26.19116271815102" y="24.20063435157154" font-family="Cascadia, Segoe UI Emoji" font-size="11.174896093077768px" fill="#1971c2" text-anchor="middle" style="white-space: pre;" direction="ltr" dominant-baseline="alphabetic">(Node)</text></g><g transform="translate(551.6677332727686 128.10242749415102) rotate(0 19.634765625 13.409875311693213)"><text x="19.634765625" y="10.79075903987822" font-family="Cascadia, Segoe UI Emoji" font-size="11.174896093077768px" fill="#1971c2" text-anchor="middle" style="white-space: pre;" direction="ltr" dominant-baseline="alphabetic">Grade</text><text x="19.634765625" y="24.20063435157154" font-family="Cascadia, Segoe UI Emoji" font-size="11.174896093077768px" fill="#1971c2" text-anchor="middle" style="white-space: pre;" direction="ltr" dominant-baseline="alphabetic">(Node)</text></g><g transform="translate(702.6660143856734 94.21306624374938) rotate(0 26.1796875 13.409875311693213)"><text x="26.1796875" y="10.79075903987822" font-family="Cascadia, Segoe UI Emoji" font-size="11.174896093077768px" fill="#1971c2" text-anchor="middle" style="white-space: pre;" direction="ltr" dominant-baseline="alphabetic">Generate</text><text x="26.1796875" y="24.20063435157154" font-family="Cascadia, Segoe UI Emoji" font-size="11.174896093077768px" fill="#1971c2" text-anchor="middle" style="white-space: pre;" direction="ltr" dominant-baseline="alphabetic">(Node)</text></g><g transform="translate(678.0224782835012 163.81954254882203) rotate(0 22.481868703355758 9.993097996225515)"><text x="22.481868703355925" y="8.041321043837769" font-family="Cascadia, Segoe UI Emoji" font-size="8.327581663521315px" fill="#1e1e1e" text-anchor="middle" style="white-space: pre;" direction="ltr" dominant-baseline="alphabetic">Docs </text><text x="22.481868703355925" y="18.034419040063348" font-family="Cascadia, Segoe UI Emoji" font-size="8.327581663521315px" fill="#1e1e1e" text-anchor="middle" style="white-space: pre;" direction="ltr" dominant-baseline="alphabetic">relevant?</text></g><g transform="translate(822.9140002348104 131.3094789024126) rotate(0 39.30610347015681 5.088188751487905)"><text x="39.30610347015684" y="8.188803771926027" font-family="Cascadia, Segoe UI Emoji" font-size="8.48031458581336px" fill="#1e1e1e" text-anchor="middle" style="white-space: pre;" direction="ltr" dominant-baseline="alphabetic">Hallucinations?</text></g><g transform="translate(674.7836331538656 248.2112655660776) rotate(0 55.6318359375 13.409875311693213)"><text x="55.6318359375" y="10.79075903987822" font-family="Cascadia, Segoe UI Emoji" font-size="11.174896093077768px" fill="#1971c2" text-anchor="middle" style="white-space: pre;" direction="ltr" dominant-baseline="alphabetic">Re-write question</text><text x="55.6318359375" y="24.20063435157154" font-family="Cascadia, Segoe UI Emoji" font-size="11.174896093077768px" fill="#1971c2" text-anchor="middle" style="white-space: pre;" direction="ltr" dominant-baseline="alphabetic">(Node)</text></g><g transform="translate(1053.4079247773188 62.98606690236829) rotate(0 14.154164194744226 4.914528719655209)"><text x="14.15416419474394" y="6.888203453468892" font-family="Virgil, Segoe UI Emoji" font-size="7.863245951448506px" fill="#1971c2" text-anchor="middle" style="white-space: pre;" direction="ltr" dominant-baseline="alphabetic">Answer</text></g><g stroke-linecap="round"><g transform="translate(505.9692713343593 173.6890529905886) rotate(0 25.402809207393148 0.6850295272379299)"><path d="M0 0 C15.69 2.15, 33.15 1.24, 50.81 1.06 M0 0 C16.37 -0.31, 34.77 1.57, 50.81 1.06" stroke="#1e1e1e" stroke-width="1" fill="none"></path></g><g transform="translate(505.9692713343593 173.6890529905886) rotate(0 25.402809207393148 0.6850295272379299)"><path d="M50.54 0.63 L36.54 6.46 L38.23 -3.35 L51.37 3.01" stroke="none" stroke-width="0" fill="#1e1e1e" fill-rule="evenodd"></path><path d="M50.81 1.06 C44.75 4.5, 40.02 5.71, 37.18 7.34 M50.81 1.06 C45.68 2.51, 42.08 5.76, 37.18 7.34 M37.18 7.34 C36.21 4.92, 36.77 2.24, 37.24 -5.34 M37.18 7.34 C36.86 3.52, 36.79 -0.17, 37.24 -5.34 M37.24 -5.34 C41.21 -3.67, 48.75 0.32, 50.81 1.06 M37.24 -5.34 C39.6 -3.76, 42.58 -3.33, 50.81 1.06 M50.81 1.06 C50.81 1.06, 50.81 1.06, 50.81 1.06 M50.81 1.06 C50.81 1.06, 50.81 1.06, 50.81 1.06" stroke="#1e1e1e" stroke-width="1" fill="none"></path></g></g><mask></mask><g stroke-linecap="round"><g transform="translate(586.4261795231541 173.587154830062) rotate(0 26.667314892190916 -0.07508489857309542)"><path d="M0 0 C19.92 -0.51, 37.83 0.67, 53.33 -0.25 M0 0 C19.06 0.32, 37.68 -0.36, 53.33 -0.25" stroke="#1e1e1e" stroke-width="1" fill="none"></path></g><g transform="translate(586.4261795231541 173.587154830062) rotate(0 26.667314892190916 -0.07508489857309542)"><path d="M53.71 -1.25 L38.92 6.61 L39.43 -7.99 L51.91 0.34" stroke="none" stroke-width="0" fill="#1e1e1e" fill-rule="evenodd"></path><path d="M53.33 -0.25 C50 1.27, 45.19 4.39, 39.77 6.15 M53.33 -0.25 C48.22 2.57, 42.82 4.43, 39.77 6.15 M39.77 6.15 C40.14 2.99, 40.79 -0.24, 39.71 -6.53 M39.77 6.15 C39.87 3.58, 40 -0.5, 39.71 -6.53 M39.71 -6.53 C43.52 -5.97, 46.71 -4.52, 53.33 -0.25 M39.71 -6.53 C43.56 -4.53, 48.94 -2.37, 53.33 -0.25 M53.33 -0.25 C53.33 -0.25, 53.33 -0.25, 53.33 -0.25 M53.33 -0.25 C53.33 -0.25, 53.33 -0.25, 53.33 -0.25" stroke="#1e1e1e" stroke-width="1" fill="none"></path></g></g><mask></mask><g stroke-linecap="round"><g transform="translate(665.8767221214912 162.1350734523039) rotate(0 16.453671911111996 -8.154209277183327)"><path d="M0 0 C7.28 -3.17, 12.86 -5.88, 32.91 -16.31 M0 0 C12.86 -6.25, 25.06 -12.51, 32.91 -16.31" stroke="#1e1e1e" stroke-width="1" fill="none"></path></g><g transform="translate(665.8767221214912 162.1350734523039) rotate(0 16.453671911111996 -8.154209277183327)"><path d="M32.62 -15.96 L23.79 -3.68 L17.76 -15.71 L32.76 -16.63" stroke="none" stroke-width="0" fill="#1e1e1e" fill-rule="evenodd"></path><path d="M32.91 -16.31 C31.48 -13.77, 28.7 -10.9, 23.52 -4.61 M32.91 -16.31 C29.65 -11.95, 25.84 -7.54, 23.52 -4.61 M23.52 -4.61 C21.4 -8.34, 19.97 -11.43, 17.91 -15.98 M23.52 -4.61 C21.99 -8.11, 20.18 -11.31, 17.91 -15.98 M17.91 -15.98 C21.09 -15.97, 24.2 -15.72, 32.91 -16.31 M17.91 -15.98 C23.55 -16.12, 29.43 -16.36, 32.91 -16.31 M32.91 -16.31 C32.91 -16.31, 32.91 -16.31, 32.91 -16.31 M32.91 -16.31 C32.91 -16.31, 32.91 -16.31, 32.91 -16.31" stroke="#1e1e1e" stroke-width="1" fill="none"></path></g></g><mask></mask><g transform="translate(701.9183124855845 135.91097465486837) rotate(0 7.484367370605469 5.088188751487905)"><text x="7.484367370605469" y="8.188803771926027" font-family="Cascadia, Segoe UI Emoji" font-size="8.48031458581336px" fill="#1e1e1e" text-anchor="middle" style="white-space: pre;" direction="ltr" dominant-baseline="alphabetic">Yes</text></g><g stroke-linecap="round"><g transform="translate(665.2869256230515 182.84720988881054) rotate(0 21.896423277554277 13.66561746872776)"><path d="M0 0 C14.7 8.97, 27.55 18.01, 43.79 27.33 M0 0 C12.18 7.67, 24.24 14.93, 43.79 27.33" stroke="#1e1e1e" stroke-width="1" fill="none"></path></g><g transform="translate(665.2869256230515 182.84720988881054) rotate(0 21.896423277554277 13.66561746872776)"><path d="M43.64 27.6 L28.77 25.14 L35.9 15.09 L43.66 27.9" stroke="none" stroke-width="0" fill="#1e1e1e" fill-rule="evenodd"></path><path d="M43.79 27.33 C39.65 27.12, 34.07 26.77, 28.91 25.46 M43.79 27.33 C39.55 26.75, 35.24 25.93, 28.91 25.46 M28.91 25.46 C30.45 23.41, 31.45 21.24, 35.66 14.73 M28.91 25.46 C30.63 22.48, 33.01 19.01, 35.66 14.73 M35.66 14.73 C38.73 18.66, 40.06 22.68, 43.79 27.33 M35.66 14.73 C37.69 18.24, 40.19 21.98, 43.79 27.33 M43.79 27.33 C43.79 27.33, 43.79 27.33, 43.79 27.33 M43.79 27.33 C43.79 27.33, 43.79 27.33, 43.79 27.33" stroke="#1e1e1e" stroke-width="1" fill="none"></path></g></g><mask></mask><g transform="translate(710.9140297431895 209.1769238373372) rotate(0 8.88082967070477 6.037562748701021)"><text x="8.880829670704706" y="9.716702548690646" font-family="Cascadia, Segoe UI Emoji" font-size="10.062604581168307px" fill="#1e1e1e" text-anchor="middle" style="white-space: pre;" direction="ltr" dominant-baseline="alphabetic">No</text></g><g stroke-linecap="round" transform="translate(720.4438136970002 131.11351115445632) rotate(0 8.755230797343756 8.755230797343756)"><path d="M7.53 0.05 C9.29 -0.4, 11.84 -0.32, 13.41 0.66 C14.97 1.65, 16.32 4.17, 16.92 5.96 C17.53 7.75, 17.61 9.69, 17.05 11.41 C16.49 13.13, 15.11 15.19, 13.58 16.27 C12.04 17.35, 9.76 18.21, 7.83 17.9 C5.9 17.59, 3.39 15.9, 2.01 14.41 C0.63 12.92, -0.47 10.91, -0.44 8.97 C-0.4 7.03, 0.9 4.3, 2.23 2.77 C3.56 1.23, 6.65 0.14, 7.54 -0.23 C8.44 -0.61, 7.54 0.37, 7.59 0.51 M8.77 -0.17 C10.47 -0.24, 12.48 1.56, 13.95 2.74 C15.42 3.92, 17.27 5.07, 17.57 6.89 C17.86 8.71, 16.72 12.05, 15.74 13.64 C14.75 15.23, 13.32 15.95, 11.65 16.44 C9.97 16.94, 7.54 17.28, 5.69 16.63 C3.84 15.98, 1.37 13.97, 0.57 12.52 C-0.24 11.07, 0.44 9.59, 0.87 7.94 C1.31 6.28, 1.88 4.03, 3.18 2.61 C4.48 1.18, 7.65 -0.18, 8.68 -0.6 C9.71 -1.02, 9.45 -0.24, 9.34 0.08" stroke="none" stroke-width="0" fill="#a5d8ff"></path><path d="M7.17 0.66 C9.01 0.2, 11.53 0.18, 13.16 0.9 C14.79 1.62, 16.3 3.29, 16.95 4.97 C17.6 6.65, 17.55 9.05, 17.05 10.98 C16.55 12.9, 15.48 15.5, 13.94 16.5 C12.41 17.51, 9.82 17.35, 7.85 17.02 C5.89 16.68, 3.5 15.7, 2.13 14.49 C0.77 13.28, -0.29 11.58, -0.34 9.77 C-0.39 7.95, 0.56 5.16, 1.83 3.59 C3.1 2.01, 6.29 0.89, 7.28 0.31 C8.28 -0.26, 7.79 0.1, 7.83 0.14 M8.8 0.62 C10.5 0.53, 12.76 0.71, 14.16 1.73 C15.56 2.75, 16.7 4.88, 17.19 6.76 C17.67 8.63, 17.89 11.18, 17.08 12.97 C16.27 14.75, 14.2 16.87, 12.33 17.44 C10.46 18.02, 7.72 17.01, 5.86 16.4 C4.01 15.79, 2.1 15.3, 1.21 13.8 C0.31 12.31, 0.1 9.42, 0.5 7.41 C0.91 5.39, 2.25 2.92, 3.64 1.71 C5.03 0.5, 7.91 0.52, 8.83 0.16 C9.76 -0.2, 9.27 -0.51, 9.2 -0.45" stroke="#1971c2" stroke-width="1" fill="none"></path></g><g stroke-linecap="round"><g transform="translate(818.87583295281 128.04249725277987) rotate(0 17.09473072221226 -9.740919782918354)"><path d="M0 0 C12.17 -6.38, 23.5 -12.76, 34.19 -19.48 M0 0 C7.82 -4.4, 14.85 -8.92, 34.19 -19.48" stroke="#1e1e1e" stroke-width="1" fill="none"></path></g><g transform="translate(818.87583295281 128.04249725277987) rotate(0 17.09473072221226 -9.740919782918354)"><path d="M33.42 -19.08 L24.58 -7.8 L19.56 -19.22 L33.2 -18.98" stroke="none" stroke-width="0" fill="#1e1e1e" fill-rule="evenodd"></path><path d="M34.19 -19.48 C31.39 -15.11, 28.08 -10.72, 25.39 -7.33 M34.19 -19.48 C32.43 -16.97, 30.07 -14.43, 25.39 -7.33 M25.39 -7.33 C23.31 -11.2, 22.1 -13.51, 19.23 -18.41 M25.39 -7.33 C23.66 -9.65, 22.19 -12.28, 19.23 -18.41 M19.23 -18.41 C25.25 -18.93, 29.39 -19.5, 34.19 -19.48 M19.23 -18.41 C24 -18.42, 28.29 -19.43, 34.19 -19.48 M34.19 -19.48 C34.19 -19.48, 34.19 -19.48, 34.19 -19.48 M34.19 -19.48 C34.19 -19.48, 34.19 -19.48, 34.19 -19.48" stroke="#1e1e1e" stroke-width="1" fill="none"></path></g></g><mask></mask><g transform="translate(856.199540939102 98.64497744387336) rotate(0 7.484367370605469 5.088188751487905)"><text x="7.484367370605469" y="8.188803771926027" font-family="Cascadia, Segoe UI Emoji" font-size="8.48031458581336px" fill="#1e1e1e" text-anchor="middle" style="white-space: pre;" direction="ltr" dominant-baseline="alphabetic">No</text></g><g stroke-linecap="round"><g transform="translate(819.6398859517594 145.89562348778418) rotate(0 18.423103260064636 11.384287530260735)"><path d="M0 0 C11.3 7.42, 23.45 15.33, 36.85 22.77 M0 0 C9.51 5.59, 19.44 11.75, 36.85 22.77" stroke="#1e1e1e" stroke-width="1" fill="none"></path></g><g transform="translate(819.6398859517594 145.89562348778418) rotate(0 18.423103260064636 11.384287530260735)"><path d="M37.18 21.96 L20.98 21.39 L29.02 10.3 L37.01 23.46" stroke="none" stroke-width="0" fill="#1e1e1e" fill-rule="evenodd"></path><path d="M36.85 22.77 C31.38 22.23, 26.54 21.95, 21.97 20.88 M36.85 22.77 C33.03 21.88, 29.48 21.59, 21.97 20.88 M21.97 20.88 C23.03 18.64, 24.81 15.47, 28.73 10.16 M21.97 20.88 C24.86 16.58, 27.16 12.74, 28.73 10.16 M28.73 10.16 C30.9 14.24, 33.83 17.9, 36.85 22.77 M28.73 10.16 C31.69 15.14, 35.37 20.47, 36.85 22.77 M36.85 22.77 C36.85 22.77, 36.85 22.77, 36.85 22.77 M36.85 22.77 C36.85 22.77, 36.85 22.77, 36.85 22.77" stroke="#1e1e1e" stroke-width="1" fill="none"></path></g></g><mask></mask><g transform="translate(862.6642672015278 167.24111827577235) rotate(0 7.484367370605469 5.088188751487905)"><text x="7.484367370605469" y="8.188803771926027" font-family="Cascadia, Segoe UI Emoji" font-size="8.48031458581336px" fill="#1e1e1e" text-anchor="middle" style="white-space: pre;" direction="ltr" dominant-baseline="alphabetic">Yes</text></g><g stroke-linecap="round" transform="translate(921.7426194372183 88.83559315983075) rotate(0 11.094247566144077 11.843858888179966)"><path d="M12.74 0.44 L22.62 12.63 L12.04 23.37 L-0.49 12.49" stroke="none" stroke-width="0" fill="#a5d8ff" fill-rule="evenodd"></path><path d="M12 0 C14.87 3.34, 19.09 7.99, 22.19 12 M12 0 C15.87 4.79, 20.39 9.37, 22.19 12 M22.19 12 C18.52 15.73, 14.76 19.19, 12 23.69 M22.19 12 C19.37 15.66, 15.97 19.09, 12 23.69 M12 23.69 C7.23 20.37, 2.9 15.83, 0 12 M12 23.69 C9.45 21.71, 6.84 18.79, 0 12 M0 12 C4.18 8.17, 8.8 2.94, 12 0 M0 12 C2.57 9.55, 4.51 6.86, 12 0" stroke="#1e1e1e" stroke-width="1" fill="none"></path></g><g stroke-linecap="round"><g transform="translate(944.9268095121224 92.78969681733997) rotate(0 17.09473072221226 -9.7409197829179)"><path d="M0 0 C11.63 -6.84, 21.97 -11.91, 34.19 -19.48 M0 0 C13.41 -7.29, 26.58 -15.25, 34.19 -19.48" stroke="#1e1e1e" stroke-width="1" fill="none"></path></g><g transform="translate(944.9268095121224 92.78969681733997) rotate(0 17.09473072221226 -9.7409197829179)"><path d="M34.19 -18.69 L26.43 -7.5 L18.83 -18.74 L34.99 -19.81" stroke="none" stroke-width="0" fill="#1e1e1e" fill-rule="evenodd"></path><path d="M34.19 -19.48 C31.51 -15.87, 27.99 -10.84, 25.54 -7.23 M34.19 -19.48 C31.17 -14.65, 27.94 -10.36, 25.54 -7.23 M25.54 -7.23 C24.2 -9.53, 22.5 -11.2, 19.24 -18.23 M25.54 -7.23 C23.39 -10.81, 21.2 -14.97, 19.24 -18.23 M19.24 -18.23 C24.68 -18.44, 30.19 -19.4, 34.19 -19.48 M19.24 -18.23 C24.51 -18.56, 30.58 -18.99, 34.19 -19.48 M34.19 -19.48 C34.19 -19.48, 34.19 -19.48, 34.19 -19.48 M34.19 -19.48 C34.19 -19.48, 34.19 -19.48, 34.19 -19.48" stroke="#1e1e1e" stroke-width="1" fill="none"></path></g></g><mask></mask><g transform="translate(982.2505174984144 63.392177008433464) rotate(0 7.484367370605469 5.088188751487905)"><text x="7.484367370605469" y="8.188803771926027" font-family="Cascadia, Segoe UI Emoji" font-size="8.48031458581336px" fill="#1e1e1e" text-anchor="middle" style="white-space: pre;" direction="ltr" dominant-baseline="alphabetic">Yes</text></g><g stroke-linecap="round"><g transform="translate(945.6908625110718 110.64282305234428) rotate(0 18.423103260064636 11.38428753026028)"><path d="M0 0 C14.82 8.6, 28.51 18.23, 36.85 22.77 M0 0 C12.52 7.6, 25.2 15.38, 36.85 22.77" stroke="#1e1e1e" stroke-width="1" fill="none"></path></g><g transform="translate(945.6908625110718 110.64282305234428) rotate(0 18.423103260064636 11.38428753026028)"><path d="M35.98 22.59 L21.71 21.27 L28.68 11.13 L36.54 22.96" stroke="none" stroke-width="0" fill="#1e1e1e" fill-rule="evenodd"></path><path d="M36.85 22.77 C31.08 21.69, 24.49 21.41, 21.96 20.9 M36.85 22.77 C31.7 21.94, 26.73 21.33, 21.96 20.9 M21.96 20.9 C23.23 18.24, 25.01 16.04, 28.71 10.17 M21.96 20.9 C23.51 17.94, 25.61 15.11, 28.71 10.17 M28.71 10.17 C31.25 14.5, 33.7 18.7, 36.85 22.77 M28.71 10.17 C31.51 14.52, 34.02 18.37, 36.85 22.77 M36.85 22.77 C36.85 22.77, 36.85 22.77, 36.85 22.77 M36.85 22.77 C36.85 22.77, 36.85 22.77, 36.85 22.77" stroke="#1e1e1e" stroke-width="1" fill="none"></path></g></g><mask></mask><g transform="translate(984.0828995423162 132.56736086764795) rotate(0 7.484367370605469 5.088188751487905)"><text x="7.484367370605469" y="8.188803771926027" font-family="Cascadia, Segoe UI Emoji" font-size="8.48031458581336px" fill="#1e1e1e" text-anchor="middle" style="white-space: pre;" direction="ltr" dominant-baseline="alphabetic">No</text></g><g stroke-linecap="round"><g transform="translate(744.2961981363842 139.7659337005971) rotate(0 21.64304043140146 -1.2465970766143073)"><path d="M0 0 C9.39 -1.26, 20.09 -1.26, 43.29 -2.49 M0 0 C15.31 -1.22, 31.5 -1.18, 43.29 -2.49" stroke="#1e1e1e" stroke-width="1" fill="none"></path></g><g transform="translate(744.2961981363842 139.7659337005971) rotate(0 21.64304043140146 -1.2465970766143073)"><path d="M43.56 -3.31 L30.28 4.81 L29.82 -8.29 L43.81 -2.68" stroke="none" stroke-width="0" fill="#1e1e1e" fill-rule="evenodd"></path><path d="M43.29 -2.49 C39.61 -1.46, 36.88 0.72, 30.21 4.86 M43.29 -2.49 C38.37 -0.24, 34.17 3.09, 30.21 4.86 M30.21 4.86 C29.48 0.65, 29.15 -4.15, 29.25 -7.78 M30.21 4.86 C30.12 1.04, 29.62 -2.39, 29.25 -7.78 M29.25 -7.78 C32.7 -7.31, 35.09 -6.16, 43.29 -2.49 M29.25 -7.78 C32.36 -6.64, 35.08 -5.34, 43.29 -2.49 M43.29 -2.49 C43.29 -2.49, 43.29 -2.49, 43.29 -2.49 M43.29 -2.49 C43.29 -2.49, 43.29 -2.49, 43.29 -2.49" stroke="#1e1e1e" stroke-width="1" fill="none"></path></g></g><mask></mask><g stroke-linecap="round"><g transform="translate(874.2190100757889 104.18393827735781) rotate(0 21.407114960508807 -0.1885318859731342)"><path d="M0 0 C13.46 -0.1, 26.07 -0.8, 42.81 0 M0 0 C14.21 -0.18, 28.72 -0.11, 42.81 0" stroke="#1e1e1e" stroke-width="1" fill="none"></path></g><g transform="translate(874.2190100757889 104.18393827735781) rotate(0 21.407114960508807 -0.1885318859731342)"><path d="M43.06 -0.32 L28.79 5.29 L28.39 -5.61 L43.74 -0.87" stroke="none" stroke-width="0" fill="#1e1e1e" fill-rule="evenodd"></path><path d="M42.81 0 C39.21 1.7, 34.95 3.06, 29.18 6.25 M42.81 0 C37.96 1.76, 33.37 3.93, 29.18 6.25 M29.18 6.25 C28.57 2.93, 29.19 -1.69, 29.26 -6.43 M29.18 6.25 C29.05 3.47, 29.52 -0.04, 29.26 -6.43 M29.26 -6.43 C33.38 -4.89, 37.47 -3.5, 42.81 0 M29.26 -6.43 C34.04 -4.54, 38.59 -2.38, 42.81 0 M42.81 0 C42.81 0, 42.81 0, 42.81 0 M42.81 0 C42.81 0, 42.81 0, 42.81 0" stroke="#1e1e1e" stroke-width="1" fill="none"></path></g></g><mask></mask><g stroke-linecap="round"><g transform="translate(849.8814316443313 179.20085957472656) rotate(0 -60.49366951313641 -11.812096150443267)"><path d="M-2.95 0.02 C-31.27 0.92, -57.26 0.65, -117.53 -0.02 M-2.95 0.02 C-27.81 -0.53, -53.82 0.3, -117.53 -0.02 M-117.53 -0.02 C-119.3 -5.72, -115.74 -13, -117.53 -24.22 M-117.53 -0.02 C-116.93 -5.86, -118.31 -11.73, -117.53 -24.22" stroke="#1e1e1e" stroke-width="1" fill="none"></path></g><g transform="translate(849.8814316443313 179.20085957472656) rotate(0 -60.49366951313641 -11.812096150443267)"><path d="M-118.37 -25.15 L-113.16 -13.71 L-121.98 -15.2 L-116.93 -23.32" stroke="none" stroke-width="0" fill="#1e1e1e" fill-rule="evenodd"></path><path d="M-117.53 -24.22 C-116.83 -21.75, -114.8 -19.25, -112.68 -13.13 M-117.53 -24.22 C-115.98 -21.81, -115.11 -18.82, -112.68 -13.13 M-112.68 -13.13 C-115.99 -13.2, -116.56 -14.09, -122.9 -13.38 M-112.68 -13.13 C-114.84 -13.32, -117.98 -13.43, -122.9 -13.38 M-122.9 -13.38 C-120.58 -16.37, -119.94 -18.7, -117.53 -24.22 M-122.9 -13.38 C-121.57 -15.56, -119.89 -18.32, -117.53 -24.22 M-117.53 -24.22 C-117.53 -24.22, -117.53 -24.22, -117.53 -24.22 M-117.53 -24.22 C-117.53 -24.22, -117.53 -24.22, -117.53 -24.22" stroke="#1e1e1e" stroke-width="1" fill="none"></path></g></g><mask></mask><g stroke-linecap="round"><g transform="translate(992.6569801579717 149.82303374977892) rotate(0 -122.93459248339514 41.313401179344055)"><path d="M0 0 C0.3 27.28, -0.49 56.04, 0.63 81.75 M0 0 C0.45 20.06, 0.75 38.79, 0.63 81.75 M0.63 81.75 C-51.49 80.87, -102.81 79.08, -246.53 81.75 M0.63 81.75 C-87.05 82.3, -176.12 83.41, -246.53 81.75" stroke="#1e1e1e" stroke-width="1" fill="none"></path></g><g transform="translate(992.6569801579717 149.82303374977892) rotate(0 -122.93459248339514 41.313401179344055)"><path d="M-246.76 82.03 L-234.67 77 L-234.05 86.46 L-248.44 81.43" stroke="none" stroke-width="0" fill="#1e1e1e" fill-rule="evenodd"></path><path d="M-246.53 81.75 C-241.57 78.77, -237.55 76.77, -232.86 75.58 M-246.53 81.75 C-243.45 80.44, -240.02 78.09, -232.86 75.58 M-232.86 75.58 C-232.67 78.68, -231.83 79.98, -233.01 88.26 M-232.86 75.58 C-232.32 79.81, -232.92 85.2, -233.01 88.26 M-233.01 88.26 C-234.81 87.55, -239.91 86.32, -246.53 81.75 M-233.01 88.26 C-236.66 85.61, -241.47 84.61, -246.53 81.75 M-246.53 81.75 C-246.53 81.75, -246.53 81.75, -246.53 81.75 M-246.53 81.75 C-246.53 81.75, -246.53 81.75, -246.53 81.75" stroke="#1e1e1e" stroke-width="1" fill="none"></path></g></g><mask></mask><g stroke-linecap="round"><g transform="translate(715.0189084651101 233.11405168308102) rotate(0 -111.74493933817939 -18.979634239896768)"><path d="M0 0 C-46.42 -2.17, -91.9 0.9, -222.5 2.11 M0 0 C-52.39 -1.37, -105.97 -1.55, -222.5 2.11 M-222.5 2.11 C-222.04 -4.95, -223.45 -16.79, -223.49 -40.07 M-222.5 2.11 C-222.89 -9.99, -223.26 -20.55, -223.49 -40.07" stroke="#1e1e1e" stroke-width="1" fill="none"></path></g><g transform="translate(715.0189084651101 233.11405168308102) rotate(0 -111.74493933817939 -18.979634239896768)"><path d="M-224.87 -39.94 L-217.97 -28.01 L-228.65 -28.1 L-222.67 -40.51" stroke="none" stroke-width="0" fill="#1e1e1e" fill-rule="evenodd"></path><path d="M-223.49 -40.07 C-223.32 -38.37, -222.24 -33.33, -216.94 -26.58 M-223.49 -40.07 C-221.76 -36.91, -221.1 -34.31, -216.94 -26.58 M-216.94 -26.58 C-219.11 -25.57, -222.44 -27.65, -229.62 -26.38 M-216.94 -26.58 C-220.5 -27.1, -223.91 -26.68, -229.62 -26.38 M-229.62 -26.38 C-226.59 -31.48, -225.05 -34.68, -223.49 -40.07 M-229.62 -26.38 C-228.04 -29.39, -227.1 -33.02, -223.49 -40.07 M-223.49 -40.07 C-223.49 -40.07, -223.49 -40.07, -223.49 -40.07 M-223.49 -40.07 C-223.49 -40.07, -223.49 -40.07, -223.49 -40.07" stroke="#1e1e1e" stroke-width="1" fill="none"></path></g></g><mask></mask><g transform="translate(949.3929518845598 96.26570836287465) rotate(0 45.08076923898079 5.088188751487905)"><text x="45.080769238980835" y="8.188803771926027" font-family="Cascadia, Segoe UI Emoji" font-size="8.48031458581336px" fill="#1e1e1e" text-anchor="middle" style="white-space: pre;" direction="ltr" dominant-baseline="alphabetic">Answers question?</text></g><g stroke-linecap="round"><g transform="translate(1001.8632982393228 69.52570779621237) rotate(0 22.86518557427371 -0.13486999724818816)"><path d="M0 0 C14.54 -1.01, 29.57 0.56, 45.73 -0.16 M0 0 C11.8 -0.34, 24.47 0.45, 45.73 -0.16" stroke="#1e1e1e" stroke-width="1" fill="none"></path></g><g transform="translate(1001.8632982393228 69.52570779621237) rotate(0 22.86518557427371 -0.13486999724818816)"><path d="M46.21 -1.07 L31.79 5.84 L31.29 -6.87 L46.13 0.16" stroke="none" stroke-width="0" fill="#1e1e1e" fill-rule="evenodd"></path><path d="M45.73 -0.16 C41.53 1.15, 37.68 4.43, 32.22 6.37 M45.73 -0.16 C41.82 1.18, 38.57 3.54, 32.22 6.37 M32.22 6.37 C32.76 3.32, 31.69 0.35, 32.05 -6.31 M32.22 6.37 C31.97 2.28, 32.14 -2.03, 32.05 -6.31 M32.05 -6.31 C36.63 -4.4, 39.81 -2.22, 45.73 -0.16 M32.05 -6.31 C35.02 -4.77, 38.1 -3.96, 45.73 -0.16 M45.73 -0.16 C45.73 -0.16, 45.73 -0.16, 45.73 -0.16 M45.73 -0.16 C45.73 -0.16, 45.73 -0.16, 45.73 -0.16" stroke="#1e1e1e" stroke-width="1" fill="none"></path></g></g><mask></mask><g stroke-linecap="round" transform="translate(437.1807659639635 42.3427363379742) rotate(0 292.99560880879926 120.9220362859287)"><path d="M0 0 C198.01 -1.65, 395.82 -1.3, 585.99 0 M585.99 0 C586.62 88.46, 587.18 174.29, 585.99 241.84 M585.99 241.84 C391.91 243.72, 197.4 243.62, 0 241.84 M0 241.84 C-0.07 165.97, 0.12 91.81, 0 0" stroke="#1e1e1e" stroke-width="1.5" fill="none" stroke-dasharray="8 9"></path></g><g stroke-linecap="round"><g transform="translate(365.60490115828725 216.60427902634365) rotate(0 32.845413539276706 0.26419945647603527)"><path d="M0 0 C12.74 0.32, 29.6 2.23, 65.69 0 M0 0 C15.68 -0.93, 32.97 -0.47, 65.69 0" stroke="#1e1e1e" stroke-width="1" fill="none"></path></g><g transform="translate(365.60490115828725 216.60427902634365) rotate(0 32.845413539276706 0.26419945647603527)"><path d="M63.89 0.47 L50.1 4.89 L51.33 -7.66 L64.96 -0.57" stroke="none" stroke-width="0" fill="#1e1e1e" fill-rule="evenodd"></path><path d="M65.69 0 C61.36 1.37, 60.11 4.15, 52 6.14 M65.69 0 C61.71 1.05, 58.94 2.93, 52 6.14 M52 6.14 C51.75 1.25, 52.46 -3.12, 52.19 -6.54 M52 6.14 C52.22 3.18, 51.81 -1.11, 52.19 -6.54 M52.19 -6.54 C54.38 -6.31, 59.63 -3.45, 65.69 0 M52.19 -6.54 C57.24 -4.5, 61.29 -2.22, 65.69 0 M65.69 0 C65.69 0, 65.69 0, 65.69 0 M65.69 0 C65.69 0, 65.69 0, 65.69 0" stroke="#1e1e1e" stroke-width="1" fill="none"></path></g></g><mask></mask><g transform="translate(626.3965732868201 10) rotate(0 98.4375 9.599999999999909)"><text x="98.4375" y="15.45" font-family="Cascadia, Segoe UI Emoji" font-size="16px" fill="#1971c2" text-anchor="middle" style="white-space: pre;" direction="ltr" dominant-baseline="alphabetic">RAG + Self-reflection</text></g><g transform="translate(221.39078755491028 158.56056127922966) rotate(0 32.8125 9.599999999999909)"><text x="32.8125" y="15.45" font-family="Cascadia, Segoe UI Emoji" font-size="16px" fill="#e03131" text-anchor="middle" style="white-space: pre;" direction="ltr" dominant-baseline="alphabetic">Routing</text></g><g stroke-linecap="round"><g transform="translate(82.75738999628447 334.37147898347666) rotate(0 40.23242041717367 0.580769242768838)"><path d="M0 0 C19.47 2.19, 37.19 0.75, 80.46 0" stroke="#1e1e1e" stroke-width="1.5" fill="none" stroke-dasharray="8 9"></path></g><g transform="translate(82.75738999628447 334.37147898347666) rotate(0 40.23242041717367 0.580769242768838)"><path d="M80.54 1.42 L67.22 7.02 L68.58 -5.69 L80.79 1.09" stroke="none" stroke-width="0" fill="#1e1e1e" fill-rule="evenodd"></path><path d="M80.46 0 C77.8 2.83, 73.84 3.3, 67.02 6.65 M67.02 6.65 C67.01 3.7, 65.79 -1.05, 66.73 -6.03 M66.73 -6.03 C73.03 -5.08, 76.41 -1.99, 80.46 0 M80.46 0 C80.46 0, 80.46 0, 80.46 0" stroke="#1e1e1e" stroke-width="1.5" fill="none"></path></g></g><mask></mask><g transform="translate(10 322.6688117893591) rotate(0 33.34398651123047 10)"><text x="33.34398651123047" y="14.016" font-family="Virgil, Segoe UI Emoji" font-size="16px" fill="#1e1e1e" text-anchor="middle" style="white-space: pre;" direction="ltr" dominant-baseline="alphabetic">Question</text></g></svg>